<svg width="382" height="77" viewBox="0 0 382 77" fill="none" xmlns="http://www.w3.org/2000/svg">
<path d="M359.775 22.6552C359.775 24.638 358.24 26.365 356.257 26.6528V25.4695C357.408 25.2776 358.24 24.4461 358.24 23.5507C358.048 23.6786 357.792 23.7745 357.408 23.7745C356.513 23.7745 355.745 23.1349 355.745 22.0476C355.745 20.9282 356.513 20.1287 357.632 20.1287C358.783 20.1287 359.775 21.0562 359.775 22.6552Z" fill="#150D2B"/>
<path d="M341.265 19.3932H343.375C343.375 21.1841 344.719 22.3035 346.893 22.3035C349.292 22.3035 350.699 21.2801 350.699 19.6171C350.699 18.3378 350.059 17.6023 348.237 17.1545L345.582 16.4829C342.896 15.8113 341.585 14.4042 341.585 12.2935C341.585 9.57508 343.855 7.84811 347.181 7.84811C350.443 7.84811 352.554 9.63904 352.65 12.5173H350.507C350.443 10.7264 349.196 9.67102 347.117 9.67102C344.943 9.67102 343.727 10.5985 343.727 12.2615C343.727 13.4448 344.559 14.2763 346.254 14.692L348.908 15.3636C351.595 16.0352 352.81 17.2825 352.81 19.5211C352.81 22.3035 350.443 24.1264 346.925 24.1264C343.439 24.1264 341.265 22.2715 341.265 19.3932Z" fill="#150D2B"/>
<path d="M327.332 23.7426H325.125V8.26386H327.044L327.364 10.9503C328.387 8.96744 330.434 7.84811 332.673 7.84811C336.926 7.84811 338.685 10.3746 338.685 14.2763V23.7426H336.478V14.756C336.478 11.1421 334.847 9.86291 332.289 9.86291C329.123 9.86291 327.332 12.1655 327.332 15.6514V23.7426Z" fill="#150D2B"/>
<path d="M313.181 24.1264C309.887 24.1264 307.937 22.2715 307.937 19.5531C307.937 16.7068 310.111 14.9159 313.725 14.6281L318.842 14.2123V13.7006C318.842 10.6624 317.019 9.703 314.748 9.703C312.062 9.703 310.463 10.9183 310.463 12.997H308.448C308.448 9.86291 311.007 7.84811 314.812 7.84811C318.394 7.84811 321.017 9.63904 321.017 13.7326V23.7426H319.162L318.874 21.0242C317.915 22.975 315.804 24.1264 313.181 24.1264ZM313.693 22.3354C316.955 22.3354 318.842 20.0648 318.842 16.7068V15.8753L314.269 16.2271C311.358 16.4829 310.175 17.7622 310.175 19.4891C310.175 21.376 311.582 22.3354 313.693 22.3354Z" fill="#150D2B"/>
<path d="M293.878 19.3932H295.989C295.989 21.1841 297.332 22.3035 299.507 22.3035C301.905 22.3035 303.313 21.2801 303.313 19.6171C303.313 18.3378 302.673 17.6023 300.85 17.1545L298.196 16.4829C295.509 15.8113 294.198 14.4042 294.198 12.2935C294.198 9.57508 296.469 7.84811 299.795 7.84811C303.057 7.84811 305.168 9.63904 305.263 12.5173H303.121C303.057 10.7264 301.81 9.67102 299.731 9.67102C297.556 9.67102 296.341 10.5985 296.341 12.2615C296.341 13.4448 297.172 14.2763 298.867 14.692L301.522 15.3636C304.208 16.0352 305.423 17.2825 305.423 19.5211C305.423 22.3035 303.057 24.1264 299.539 24.1264C296.053 24.1264 293.878 22.2715 293.878 19.3932Z" fill="#150D2B"/>
<path d="M289.788 4.01039C288.893 4.01039 288.157 3.27484 288.157 2.37937C288.157 1.48391 288.893 0.71637 289.788 0.71637C290.684 0.71637 291.451 1.48391 291.451 2.37937C291.451 3.27484 290.684 4.01039 289.788 4.01039ZM288.701 23.7426V8.26385H290.907V23.7426H288.701Z" fill="#150D2B"/>
<path d="M283.045 23.7426H280.87V10.1187H277.768V8.26383H280.87V3.37076H283.045V8.26383H286.147V10.1187H283.045V23.7426Z" fill="#150D2B"/>
<path d="M276.256 8.07189V10.0547H275.041C272.195 10.0547 270.372 11.9736 270.372 14.9158V23.7425H268.165V8.26378H270.244L270.404 10.6623C271.012 8.99934 272.643 7.91199 274.817 7.91199C275.297 7.91199 275.713 7.94397 276.256 8.07189Z" fill="#150D2B"/>
<path d="M256.222 24.1264C252.928 24.1264 250.977 22.2715 250.977 19.5531C250.977 16.7068 253.152 14.9159 256.766 14.6281L261.883 14.2123V13.7006C261.883 10.6624 260.06 9.703 257.789 9.703C255.103 9.703 253.504 10.9183 253.504 12.997H251.489C251.489 9.86291 254.047 7.84811 257.853 7.84811C261.435 7.84811 264.057 9.63904 264.057 13.7326V23.7426H262.202L261.915 21.0242C260.955 22.975 258.844 24.1264 256.222 24.1264ZM256.734 22.3354C259.996 22.3354 261.883 20.0648 261.883 16.7068V15.8753L257.309 16.2271C254.399 16.4829 253.216 17.7622 253.216 19.4891C253.216 21.376 254.623 22.3354 256.734 22.3354Z" fill="#150D2B"/>
<path d="M238.853 23.7426H236.647V0.428528H238.853V23.7426Z" fill="#150D2B"/>
<path d="M224.607 24.1264C221.313 24.1264 219.362 22.2715 219.362 19.5531C219.362 16.7068 221.537 14.9159 225.151 14.6281L230.268 14.2123V13.7006C230.268 10.6624 228.445 9.703 226.174 9.703C223.488 9.703 221.889 10.9183 221.889 12.997H219.874C219.874 9.86291 222.432 7.84811 226.238 7.84811C229.82 7.84811 232.442 9.63904 232.442 13.7326V23.7426H230.587L230.3 21.0242C229.34 22.975 227.229 24.1264 224.607 24.1264ZM225.119 22.3354C228.381 22.3354 230.268 20.0648 230.268 16.7068V15.8753L225.694 16.2271C222.784 16.4829 221.601 17.7622 221.601 19.4891C221.601 21.376 223.008 22.3354 225.119 22.3354Z" fill="#150D2B"/>
<path d="M214.756 23.7426H212.581V10.1187H209.479V8.26383H212.581V3.37076H214.756V8.26383H217.858V10.1187H214.756V23.7426Z" fill="#150D2B"/>
<path d="M205.805 4.01039C204.909 4.01039 204.174 3.27484 204.174 2.37937C204.174 1.48391 204.909 0.71637 205.805 0.71637C206.7 0.71637 207.468 1.48391 207.468 2.37937C207.468 3.27484 206.7 4.01039 205.805 4.01039ZM204.717 23.7426V8.26385H206.924V23.7426H204.717Z" fill="#150D2B"/>
<path d="M185.305 15.5555C185.305 11.334 188.024 7.84811 192.565 7.84811C195.251 7.84811 197.298 9.09537 198.29 11.366L198.514 8.26386H200.432V23.2629C200.432 27.8681 197.49 30.8743 192.949 30.8743C188.983 30.8743 186.201 28.6357 185.593 24.8939H187.8C188.28 27.3884 190.199 28.8595 192.981 28.8595C196.147 28.8595 198.258 26.7168 198.258 23.4867V19.8089C197.202 21.9836 195.06 23.2629 192.405 23.2629C187.992 23.2629 185.305 19.777 185.305 15.5555ZM187.512 15.5235C187.512 18.6896 189.463 21.2801 192.725 21.2801C196.083 21.2801 198.066 18.8495 198.066 15.5235C198.066 12.2295 196.147 9.79895 192.757 9.79895C189.431 9.79895 187.512 12.3894 187.512 15.5235Z" fill="#150D2B"/>
<path d="M180.96 4.01039C180.064 4.01039 179.329 3.27484 179.329 2.37937C179.329 1.48391 180.064 0.71637 180.96 0.71637C181.855 0.71637 182.623 1.48391 182.623 2.37937C182.623 3.27484 181.855 4.01039 180.96 4.01039ZM179.872 23.7426V8.26385H182.079V23.7426H179.872Z" fill="#150D2B"/>
<path d="M167.592 24.1263C163.083 24.1263 160.428 20.6724 160.428 16.0352C160.428 11.366 163.083 7.84808 167.688 7.84808C170.246 7.84808 172.293 8.96741 173.381 11.2061V0.428528H175.587V23.7426H173.668L173.445 20.5765C172.357 22.975 170.182 24.1263 167.592 24.1263ZM167.976 22.1115C171.366 22.1115 173.349 19.5531 173.349 15.9712C173.349 12.4213 171.366 9.83089 167.976 9.83089C164.618 9.83089 162.667 12.4213 162.667 15.9712C162.667 19.5531 164.618 22.1115 167.976 22.1115Z" fill="#150D2B"/>
<path d="M142.065 8.26383H144.431V5.25764C144.431 1.77172 146.35 0.428528 148.717 0.428528C149.26 0.428528 149.9 0.460508 150.412 0.556452V2.44332H149.1C147.15 2.44332 146.638 3.43473 146.638 5.25764V8.26383H150.284V10.1187H146.638V23.7426H144.431V10.1187H142.065V8.26383Z" fill="#150D2B"/>
<path d="M124.972 16.0032C124.972 11.2701 128.298 7.84811 132.839 7.84811C137.381 7.84811 140.707 11.2701 140.707 16.0032C140.707 20.7044 137.381 24.1264 132.839 24.1264C128.298 24.1264 124.972 20.7044 124.972 16.0032ZM127.211 15.9712C127.211 19.6171 129.513 22.1435 132.839 22.1435C136.133 22.1435 138.468 19.6171 138.468 15.9712C138.468 12.3894 136.133 9.83093 132.839 9.83093C129.513 9.83093 127.211 12.3894 127.211 15.9712Z" fill="#150D2B"/>
<path d="M93.1146 23.7426H90.908V8.26386H92.8268L93.0827 10.4705C93.8502 8.83952 95.5772 7.84811 97.7519 7.84811C100.182 7.84811 102.005 9.12735 102.741 11.1421C103.444 9.12735 105.331 7.84811 107.826 7.84811C111.184 7.84811 113.39 10.0228 113.39 13.6047V23.7426H111.248V14.0524C111.248 11.398 109.777 9.83093 107.41 9.83093C104.82 9.83093 103.285 11.7818 103.285 14.1803V23.7426H101.11V14.0204C101.11 11.398 99.6067 9.86291 97.2721 9.86291C94.6817 9.86291 93.1146 11.7818 93.1146 14.1483V23.7426Z" fill="#150D2B"/>
<path d="M78.9646 24.1264C75.6706 24.1264 73.7197 22.2715 73.7197 19.5531C73.7197 16.7068 75.8944 14.9159 79.5083 14.6281L84.6252 14.2123V13.7006C84.6252 10.6624 82.8023 9.703 80.5316 9.703C77.8453 9.703 76.2462 10.9183 76.2462 12.997H74.2314C74.2314 9.86291 76.7899 7.84811 80.5956 7.84811C84.1775 7.84811 86.7999 9.63904 86.7999 13.7326V23.7426H84.945L84.6572 21.0242C83.6977 22.975 81.587 24.1264 78.9646 24.1264ZM79.4763 22.3354C82.7383 22.3354 84.6252 20.0648 84.6252 16.7068V15.8753L80.0519 16.2271C77.1417 16.4829 75.9584 17.7622 75.9584 19.4891C75.9584 21.376 77.3655 22.3354 79.4763 22.3354Z" fill="#150D2B"/>
<path d="M64.5911 24.1264C60.0498 24.1264 57.0116 20.8643 57.0116 16.0032C57.0116 11.1741 60.0178 7.84811 64.4311 7.84811C68.6206 7.84811 71.4669 10.8223 71.4669 15.2037V16.2911H59.1543C59.3142 20.0648 61.297 22.2395 64.623 22.2395C67.1495 22.2395 68.7805 21.1521 69.3562 19.1054H71.4669C70.6354 22.3674 68.2369 24.1264 64.5911 24.1264ZM64.4311 9.73498C61.5209 9.73498 59.602 11.6538 59.2183 14.692H69.2603C69.2603 11.7178 67.3414 9.73498 64.4311 9.73498Z" fill="#150D2B"/>
<path d="M52.5992 23.7426H50.4245V10.1187H47.3224V8.26383H50.4245V3.37076H52.5992V8.26383H55.7014V10.1187H52.5992V23.7426Z" fill="#150D2B"/>
<path d="M28.5558 24.1264C25.2617 24.1264 23.3109 22.2715 23.3109 19.5531C23.3109 16.7068 25.4856 14.9159 29.0994 14.6281L34.2164 14.2123V13.7006C34.2164 10.6624 32.3935 9.703 30.1228 9.703C27.4364 9.703 25.8374 10.9183 25.8374 12.997H23.8226C23.8226 9.86291 26.3811 7.84811 30.1868 7.84811C33.7686 7.84811 36.3911 9.63904 36.3911 13.7326V23.7426H34.5362L34.2484 21.0242C33.2889 22.975 31.1782 24.1264 28.5558 24.1264ZM29.0675 22.3354C32.3295 22.3354 34.2164 20.0648 34.2164 16.7068V15.8753L29.6431 16.2271C26.7329 16.4829 25.5496 17.7622 25.5496 19.4891C25.5496 21.376 26.9567 22.3354 29.0675 22.3354Z" fill="#150D2B"/>
<path d="M150.134 47.3627C148.879 45.1102 147.097 43.3758 144.789 42.155C142.48 40.9342 139.804 40.3253 136.763 40.3253C133.723 40.3253 131.049 40.9342 128.741 42.155C126.434 43.3758 124.649 45.1102 123.392 47.3627C122.133 49.6153 121.507 52.2028 121.507 55.1327C121.507 58.0596 122.134 60.6501 123.392 62.8997C124.647 65.1522 126.432 66.8896 128.741 68.1074C131.049 69.3282 133.721 69.9371 136.763 69.9371C139.803 69.9371 142.48 69.3282 144.787 68.1074C147.095 66.8896 148.877 65.1626 150.132 62.9309C151.392 60.6948 152.02 58.0983 152.02 55.1327C152.021 52.2028 151.392 49.6153 150.134 47.3627Z" fill="#150D2B"/>
<path d="M109.231 40.4191H109.862C113.215 40.4191 115.933 43.1376 115.933 46.4903V63.7736C115.933 67.1263 113.215 69.8449 109.862 69.8449H109.231C105.878 69.8449 103.159 67.1263 103.159 63.7736V46.4903C103.159 43.1361 105.878 40.4191 109.231 40.4191Z" fill="#150D2B"/>
<path d="M166.297 67.0712L156.491 47.2347C154.939 44.0964 157.223 40.4191 160.725 40.4191H180.874C184.376 40.4191 186.659 44.0964 185.108 47.2347L175.301 67.0712C173.457 70.7992 168.14 70.7992 166.297 67.0712Z" fill="#150D2B"/>
<path d="M201.324 42.9217L210.977 65.3442C211.893 67.4732 210.332 69.8433 208.016 69.8433H187.024C184.708 69.8433 183.146 67.4717 184.063 65.3442L193.716 42.9217C195.153 39.5838 199.886 39.5838 201.324 42.9217Z" fill="#150D2B"/>
<path d="M97.0555 44.1589V63.7602C97.0555 67.1204 94.3311 69.8448 90.9709 69.8448H69.3463C65.9876 69.8448 63.2646 67.1218 63.2646 63.7632V44.1559C63.2646 41.4731 66.3122 39.9292 68.4754 41.5163L78.4279 48.8158C79.4596 49.5721 80.8621 49.5721 81.8938 48.8158L91.8463 41.5178C94.008 39.9322 97.0555 41.4761 97.0555 44.1589Z" fill="#150D2B"/>
<path d="M379.87 67.9942C378.708 67.9942 377.74 67.0259 377.74 65.9026C377.74 64.7407 378.708 63.7724 379.87 63.7724C381.032 63.7724 382 64.7407 382 65.9026C382 67.0259 381.032 67.9942 379.87 67.9942Z" fill="#150D2B"/>
<path d="M365.604 68.033C360.104 68.033 356.424 64.0823 356.424 58.195C356.424 52.3464 360.065 48.3182 365.41 48.3182C370.484 48.3182 373.931 51.9203 373.931 57.2266V58.5435H359.019C359.213 63.114 361.614 65.7478 365.642 65.7478C368.702 65.7478 370.678 64.4309 371.375 61.952H373.931C372.924 65.9027 370.019 68.033 365.604 68.033ZM365.41 50.6034C361.885 50.6034 359.562 52.9274 359.097 56.6069H371.259C371.259 53.0048 368.935 50.6034 365.41 50.6034Z" fill="#150D2B"/>
<path d="M355.294 48.5893V50.9907H353.823C350.375 50.9907 348.168 53.3146 348.168 56.878V67.5681H345.495V48.8217H348.013L348.206 51.7266C348.942 49.7125 350.918 48.3956 353.551 48.3956C354.132 48.3956 354.636 48.4343 355.294 48.5893Z" fill="#150D2B"/>
<path d="M337.643 48.8217H340.315V67.5681H337.991L337.643 64.3921C336.597 66.5611 334.002 68.0329 331.058 68.0329C326.643 68.0329 324.241 65.0118 324.241 60.4414V48.783H326.953V59.5893C326.953 64.0435 328.928 65.6315 331.91 65.6315C335.513 65.6315 337.643 63.2301 337.643 58.7759V48.8217Z" fill="#150D2B"/>
<path d="M317.624 67.5681H314.99V51.0682H311.233V48.8217H314.99V42.8956H317.624V48.8217H321.381V51.0682H317.624V67.5681Z" fill="#150D2B"/>
<path d="M299.2 68.033C295.21 68.033 292.848 65.7865 292.848 62.4942C292.848 59.0471 295.482 56.8781 299.858 56.5295L306.056 56.0259V55.4062C306.056 51.7267 303.848 50.5647 301.098 50.5647C297.844 50.5647 295.908 52.0365 295.908 54.5541H293.467C293.467 50.7583 296.566 48.3182 301.175 48.3182C305.513 48.3182 308.689 50.4872 308.689 55.445V67.5682H306.443L306.094 64.2759C304.932 66.6386 302.376 68.033 299.2 68.033ZM299.82 65.864C303.77 65.864 306.056 63.114 306.056 59.0471V58.04L300.517 58.4661C296.992 58.7759 295.559 60.3252 295.559 62.4168C295.559 64.702 297.263 65.864 299.82 65.864Z" fill="#150D2B"/>
<path d="M275.127 67.5682H272.454V48.8217H274.778L275.166 52.0752C276.405 49.6738 278.884 48.3182 281.595 48.3182C286.747 48.3182 288.877 51.3781 288.877 56.1034V67.5682H286.204V56.6844C286.204 52.3076 284.229 50.7583 281.131 50.7583C277.296 50.7583 275.127 53.5471 275.127 57.7689V67.5682Z" fill="#150D2B"/>
<path d="M248.944 57.6527C248.944 52.54 252.237 48.3182 257.737 48.3182C260.99 48.3182 263.469 49.8288 264.67 52.5788L264.941 48.8217H267.265V66.9872C267.265 72.5647 263.701 76.2055 258.201 76.2055C253.399 76.2055 250.029 73.4942 249.293 68.9625H251.965C252.546 71.9837 254.87 73.7654 258.24 73.7654C262.075 73.7654 264.631 71.1703 264.631 67.2583V62.8041C263.353 65.4379 260.758 66.9872 257.543 66.9872C252.198 66.9872 248.944 62.7654 248.944 57.6527ZM251.617 57.614C251.617 61.4485 253.98 64.5858 257.93 64.5858C261.997 64.5858 264.399 61.6421 264.399 57.614C264.399 53.6245 262.075 50.6809 257.969 50.6809C253.941 50.6809 251.617 53.8182 251.617 57.614Z" fill="#150D2B"/>
<path d="M243.681 43.6702C242.597 43.6702 241.706 42.7794 241.706 41.6949C241.706 40.6104 242.597 39.6808 243.681 39.6808C244.766 39.6808 245.695 40.6104 245.695 41.6949C245.695 42.7794 244.766 43.6702 243.681 43.6702ZM242.364 67.5681V48.8217H245.037V67.5681H242.364Z" fill="#150D2B"/>
<path d="M224.369 62.3006H226.926C226.926 64.4696 228.552 65.8252 231.186 65.8252C234.091 65.8252 235.795 64.5858 235.795 62.5717C235.795 61.0224 235.021 60.1316 232.813 59.5893L229.598 58.7759C226.345 57.9626 224.757 56.2583 224.757 53.702C224.757 50.4098 227.507 48.3182 231.535 48.3182C235.485 48.3182 238.042 50.4872 238.158 53.9731H235.563C235.485 51.8041 233.975 50.5259 231.457 50.5259C228.823 50.5259 227.352 51.6492 227.352 53.6633C227.352 55.0964 228.359 56.1034 230.412 56.6069L233.626 57.4203C236.88 58.2337 238.352 59.7442 238.352 62.4555C238.352 65.8252 235.485 68.033 231.225 68.033C227.003 68.033 224.369 65.7865 224.369 62.3006Z" fill="#150D2B"/>
<path d="M42.4651 70.4018C36.9651 70.4018 33.2855 66.4511 33.2855 60.5638C33.2855 54.7152 36.9264 50.6871 42.2714 50.6871C47.3454 50.6871 50.7925 54.2892 50.7925 59.5955V60.9124H35.8806C36.0743 65.4828 38.4757 68.1166 42.5038 68.1166C45.5637 68.1166 47.539 66.7997 48.2362 64.3209H50.7925C49.7855 68.2716 46.8806 70.4018 42.4651 70.4018ZM42.2714 52.9723C38.7468 52.9723 36.4228 55.2962 35.9581 58.9758H48.12C48.12 55.3737 45.7961 52.9723 42.2714 52.9723Z" fill="#150D2B"/>
<path d="M15.9131 69.8984H13.2406V41.7012H15.9131V54.4441C17.1138 52.1977 19.399 50.6871 22.5364 50.6871C27.4554 50.6871 29.6631 53.747 29.6631 58.4723V69.9371H26.9906V59.0533C26.9906 54.6765 24.9378 53.1272 22.0328 53.1272C18.0047 53.1272 15.9131 56.1096 15.9131 59.7117V69.8984Z" fill="#150D2B"/>
<path d="M6.39084 69.9371H3.75704V53.4371H0V51.1906H3.75704V45.2646H6.39084V51.1906H10.1479V53.4371H6.39084V69.9371Z" fill="#150D2B"/>
</svg>
